<?xml version="1.0" ?><svg height="1024" preserveAspectRatio="xMidYMid meet" width="1024" xmlns="http://www.w3.org/2000/svg"><g><title/><rect fill="none" height="1026" id="canvas_background" width="1026" x="-1" y="-1"/></g><g><title/><g fill="#000000" id="svg_1" transform="translate(0,1024) scale(0.10000000149011612,-0.10000000149011612) "><path d="m4820,9439c-1036,-77 -1981,-503 -2723,-1228c-976,-952 -1444,-2300 -1271,-3654c216,-1693 1410,-3103 3050,-3602c1268,-386 2679,-157 3754,608c1321,941 2008,2502 1804,4100c-216,1693 -1410,3103 -3050,3602c-488,149 -1057,212 -1564,174zm2994,-1553c49,-28 79,-74 89,-136c5,-24 -146,-950 -468,-2879c-448,-2690 -475,-2846 -502,-2889c-35,-57 -97,-92 -162,-92c-37,0 -225,72 -968,369l-922,368l-192,-321c-105,-176 -206,-336 -223,-355c-39,-42 -83,-61 -141,-61c-62,0 -106,20 -144,66c-17,22 -186,309 -375,639l-343,600l-754,301c-694,278 -757,305 -786,339c-59,68 -64,184 -10,244c28,30 5712,3821 5747,3832c42,14 106,3 154,-25z" fill="#0099e5" id="svg_2"/><path d="m5558,5268c-960,-1030 -1746,-1877 -1747,-1883c0,-5 115,-211 256,-456l258,-447l21,32c12,17 658,1026 1436,2241c778,1216 1440,2249 1471,2298c31,48 55,87 53,87c-1,0 -788,-843 -1748,-1872z" fill="#0099e5" id="svg_3"/><path d="m4640,5450c-1180,-786 -2145,-1433 -2145,-1437c0,-4 253,-110 563,-234c309,-124 570,-233 580,-241c16,-14 100,74 1134,1181c614,658 1319,1413 1567,1679c248,265 450,482 449,482c-2,-1 -968,-644 -2148,-1430z" fill="#0099e5" id="svg_4"/><path d="m6133,4912l-1222,-1897l47,-9c26,-4 409,-154 851,-333c442,-178 804,-323 805,-321c4,5 746,4452 743,4454c-1,1 -552,-851 -1224,-1894z" fill="#0099e5" id="svg_5"/></g></g></svg>